# xmcd
#
# Track frame offsets: 
#        150
#        4404
#        18079
#        20203
#        30337
#        32150
#        47344
#        55714
#        67127
#        69408
#        84711
#        86778
#        107445
#        115852
#        130847
#        137373
#        156149
#        159640
#        170021
#        173199
#        188557
#        192072
#
# Disc length: 2827 seconds
#
# Revision: 0
# Processed by: cddbd v1.5.2PL0 Copyright (c) Steve Scherf et al.
# Submitted via: ExactAudioCopy v0.99pb4
#
DISCID=1a0b0916
DTITLE=MIke McAbee - Live at the Elkander Opera House
DYEAR=2009
DGENRE=Country
TTITLE0=Intro
TTITLE1=I Need a Vivki
TTITLE2=B.S.
TTITLE3=Harely Tatoo
TTITLE4=B.S.
TTITLE5=Feed the Bank
TTITLE6=B.S.
TTITLE7=Don't Pick Up a Gun
TTITLE8=B.S.
TTITLE9=Lucky Penny
TTITLE10=B.S.
TTITLE11=I Hit a Deer
TTITLE12=B.S.
TTITLE13=Church Bulletin Sunrise
TTITLE14=B.S.
TTITLE15=Hanging Rock
TTITLE16=B.S.
TTITLE17=My Dog is a Hippie
TTITLE18=B.S.
TTITLE19=History of Me
TTITLE20=B.S.
TTITLE21=Horseshoes
EXTD=
EXTT0=
EXTT1=
EXTT2=
EXTT3=
EXTT4=
EXTT5=
EXTT6=
EXTT7=
EXTT8=
EXTT9=
EXTT10=
EXTT11=
EXTT12=
EXTT13=
EXTT14=
EXTT15=
EXTT16=
EXTT17=
EXTT18=
EXTT19=
EXTT20=
EXTT21=
PLAYORDER=
